<?xml version="1.0" encoding="iso-8859-1"?>
<!-- Uploaded to: SVG Repo, www.svgrepo.com, Generator: SVG Repo Mixer Tools -->
<svg fill="#000000" height="800px" width="800px" version="1.1" id="Layer_1" xmlns="http://www.w3.org/2000/svg" xmlns:xlink="http://www.w3.org/1999/xlink" 
	 viewBox="0 0 512 512" xml:space="preserve">
<g>
	<g>
		<path d="M426.667,0H85.333C38.272,0,0,38.293,0,85.333v341.333C0,473.728,38.272,512,85.333,512h341.333
			C473.728,512,512,473.728,512,426.667V85.333C512,38.293,473.728,0,426.667,0z M402.283,181.653l-128,213.333
			c-3.861,6.421-10.795,10.347-18.283,10.347c-7.509,0-14.443-3.925-18.304-10.347l-128-213.333
			c-3.947-6.592-4.053-14.805-0.277-21.483c3.797-6.699,10.88-10.837,18.581-10.837h256c7.68,0,14.763,4.139,18.56,10.837
			C406.336,166.848,406.251,175.061,402.283,181.653z"/>
	</g>
</g>
<g>
	<g>
		<polygon points="165.687,192.013 255.991,342.541 346.295,192.013 		"/>
	</g>
</g>
</svg>